<svg version="1.1" xmlns="http://www.w3.org/2000/svg" style="display: block;" viewBox="0 0 1024 1024" width="256" height="256" preserveAspectRatio="none">
<defs>
	<linearGradient id="Gradient1" gradientUnits="userSpaceOnUse" x1="295.112" y1="662.918" x2="383.796" y2="552.186">
		<stop class="stop0" offset="0" stop-opacity="1" stop-color="rgb(146,3,5)"/>
		<stop class="stop1" offset="1" stop-opacity="1" stop-color="rgb(202,25,26)"/>
	</linearGradient>
	<linearGradient id="Gradient2" gradientUnits="userSpaceOnUse" x1="232.071" y1="567.734" x2="352.631" y2="466.831">
		<stop class="stop0" offset="0" stop-opacity="1" stop-color="rgb(162,11,17)"/>
		<stop class="stop1" offset="1" stop-opacity="1" stop-color="rgb(239,36,41)"/>
	</linearGradient>
	<linearGradient id="Gradient3" gradientUnits="userSpaceOnUse" x1="708.903" y1="470.249" x2="617.186" y2="349.807">
		<stop class="stop0" offset="0" stop-opacity="1" stop-color="rgb(236,12,28)"/>
		<stop class="stop1" offset="1" stop-opacity="1" stop-color="rgb(246,87,63)"/>
	</linearGradient>
	<linearGradient id="Gradient4" gradientUnits="userSpaceOnUse" x1="395.03" y1="379.227" x2="534.342" y2="314.817">
		<stop class="stop0" offset="0" stop-opacity="1" stop-color="rgb(236,11,28)"/>
		<stop class="stop1" offset="1" stop-opacity="1" stop-color="rgb(245,96,67)"/>
	</linearGradient>
	<linearGradient id="Gradient5" gradientUnits="userSpaceOnUse" x1="552.066" y1="538.056" x2="582.601" y2="337.554">
		<stop class="stop0" offset="0" stop-opacity="1" stop-color="rgb(233,0,13)"/>
		<stop class="stop1" offset="1" stop-opacity="1" stop-color="rgb(244,97,73)"/>
	</linearGradient>
	<linearGradient id="Gradient6" gradientUnits="userSpaceOnUse" x1="579.172" y1="343.345" x2="618.35" y2="171.423">
		<stop class="stop0" offset="0" stop-opacity="1" stop-color="rgb(246,113,87)"/>
		<stop class="stop1" offset="1" stop-opacity="1" stop-color="rgb(248,179,151)"/>
	</linearGradient>
</defs>
<path transform="translate(0,0)" fill="rgb(255,255,255)" d="M 0 0 L 1024 0 L 1024 1024 L 0 1024 L 0 0 z"/>
<path transform="translate(0,0)" fill="url(#Gradient6)" d="M 558.48 157.561 C 585.906 160.557 626.017 173.023 643.724 195.508 C 658.165 213.847 669.382 242.753 666.445 266.318 C 664.445 282.366 650.861 336.223 643.597 348.734 C 637.265 367.594 629.284 378.446 620.366 395.659 C 610.045 415.579 601.093 434.045 588.106 452.665 C 582.518 460.678 578.033 471.28 572.395 479.643 C 560.157 497.794 547.858 515.845 536.378 534.482 C 534.948 536.823 532.809 539.082 530.02 539.571 C 526.754 536.597 526.024 516.382 525.619 511.24 C 521.619 463.295 519.899 415.188 520.464 367.08 C 520.699 355.145 520.634 338.83 521.838 327.202 C 522.046 275.422 539.06 205.988 558.48 157.561 z"/>
<path transform="translate(0,0)" fill="url(#Gradient5)" d="M 521.838 327.202 L 523.5 321.136 L 524.174 320.89 L 524.981 330.339 C 526.605 331.36 536.546 330.709 539.881 331.917 C 567.235 341.82 594.634 346.421 623.632 347.892 C 629.465 348.188 639.765 351.747 642.694 347.071 L 643.597 348.734 C 637.265 367.594 629.284 378.446 620.366 395.659 C 610.045 415.579 601.093 434.045 588.106 452.665 C 582.518 460.678 578.033 471.28 572.395 479.643 C 560.157 497.794 547.858 515.845 536.378 534.482 C 534.948 536.823 532.809 539.082 530.02 539.571 C 526.754 536.597 526.024 516.382 525.619 511.24 C 521.619 463.295 519.899 415.188 520.464 367.08 C 520.699 355.145 520.634 338.83 521.838 327.202 z"/>
<path transform="translate(0,0)" fill="url(#Gradient4)" d="M 492.69 542.532 C 481.298 523.553 470.261 508.528 457.669 490.504 C 451.078 481.417 445.893 468.052 439.384 459.366 C 426.117 441.663 417.779 421.564 406.7 403.113 C 390.804 376.641 380.404 351.922 370.693 322.711 C 364.012 302.614 355.533 284.025 355.992 262.227 C 355.997 200.171 407.154 158.822 465.753 158.974 C 469.149 170.763 475.114 181.353 478.662 194.095 C 484.484 213.894 488.235 238.405 492.413 258.788 C 494.052 266.783 499.014 291.817 499.199 299.262 C 501.219 303.626 501.985 327.443 502.169 333.064 C 503.921 386.659 504.341 441.221 498.178 494.564 C 496.318 510.664 494.534 526.545 492.69 542.532 z"/>
<path transform="translate(0,0)" fill="rgb(248,100,70)" d="M 478.662 194.095 C 484.484 213.894 488.235 238.405 492.413 258.788 C 494.052 266.783 499.014 291.817 499.199 299.262 L 497.065 298.453 C 495.187 292.43 496.255 286.546 493.923 280.68 C 492.236 282.236 483.499 282.513 482.127 280.711 C 466.79 260.574 455.708 220.505 473.643 198.999 C 473.818 198.789 473.463 196.59 474.894 194.529 L 478.662 194.095 z"/>
<path transform="translate(0,0)" fill="rgb(231,28,35)" d="M 276.928 249.69 L 279.31 250.183 C 285.518 256.697 290.23 264.876 296.088 271.626 C 306.525 283.652 314.394 296.7 323.526 309.584 C 366.746 369.763 405.589 432.968 439.754 498.712 C 449.526 517.191 456.91 537.615 466.272 555.02 C 451.987 549.759 441.106 544.981 427.595 537.721 C 410.099 526.822 387.017 517.518 371 507.07 C 315.772 471.045 211.189 422.175 222.798 342.074 C 226.538 316.271 256.018 265.653 276.928 249.69 z"/>
<path transform="translate(0,0)" fill="url(#Gradient3)" d="M 744.502 248.508 C 757.119 258.8 768.92 271.083 776.538 285.28 C 787.097 305.7 803.967 334.525 801.569 358.332 C 795.202 421.559 732.202 457.065 683.792 487.487 C 674.629 493.245 664.225 501.027 654.967 505.743 C 635.721 515.548 617.55 524.898 598.926 535.885 C 583.852 545.282 571.579 549.62 555.028 554.921 C 573.816 525.104 585.03 489.874 604.897 460.153 C 610.487 451.791 615.15 439.834 620.628 430.749 C 642.486 394.051 665.632 358.136 690.022 323.069 C 702.401 305.625 714.893 287.888 727.981 271.002 C 733.875 263.398 739.245 256.594 744.502 248.508 z"/>
<path transform="translate(0,0)" fill="rgb(231,28,35)" d="M 841.735 420.003 L 843.366 420.251 C 846.761 425.437 847.844 454.179 847.891 461.256 C 847.969 473.074 845.315 492.759 840.635 503.615 C 824.977 539.936 787.462 574.115 747.074 578.154 C 721.842 580.677 696.301 580.018 671.295 580.03 L 580.75 579.985 C 578.194 580.162 577.549 580.459 575.561 579.118 L 575.938 577.185 C 592.867 558.201 638.34 538.854 659.627 521.816 C 665.423 517.177 681.113 511.459 687.832 506.881 C 708.382 492.88 731.133 482.637 752.449 470.484 L 807.166 439.41 C 818.803 432.738 829.506 425.51 841.735 420.003 z"/>
<path transform="translate(0,0)" fill="url(#Gradient2)" d="M 180.153 419.293 C 189.793 423.829 204.564 433.088 214.338 438.654 L 273.703 472.002 C 294.095 483.571 315.159 493.632 334.941 506.696 C 343.819 512.559 356.087 516.836 365.307 522.778 C 374.913 528.971 384.355 535.274 393.967 541.439 C 404.235 547.108 441.886 570.153 448.341 577.827 L 448.166 579.383 L 445.25 579.936 C 414.374 580.415 383.494 580.605 352.614 580.506 C 325.552 580.663 295.255 581.601 268.564 577.258 C 240.123 572.63 210.06 547.458 193.881 524.3 C 172.424 493.587 173.534 454.855 180.153 419.293 z"/>
<path transform="translate(0,0)" fill="rgb(231,28,35)" d="M 577.18 595.206 C 584.23 594.756 601.635 596.103 609.213 596.541 L 671.182 600.058 C 709.336 601.976 749.051 601.416 786.829 603.989 C 776.734 617.388 774.961 626.537 761.3 638.857 C 748.354 649.992 737.411 656.147 721.329 662.03 C 694.025 672.018 677.057 658.907 652.575 647.704 C 636.162 639.331 620.534 628.763 605.378 618.293 C 596.592 612.224 580.342 605.093 577.18 595.206 z"/>
<path transform="translate(0,0)" fill="rgb(36,35,36)" d="M 605.821 733.348 L 618.319 733.16 C 631.129 760.872 638.691 780.765 645.505 810.568 C 646.625 807.311 647.761 803.116 648.641 799.743 C 654.652 776.713 663.252 755.547 672.229 733.576 L 692.24 733.889 C 679.844 769.777 671.546 811.191 652.994 845.36 C 648.329 845.541 642.655 845.152 637.917 844.954 C 626.939 818.565 620.755 800.118 611.043 774.043 C 609.236 775.708 586.166 838.371 583.889 845.302 C 577.228 845.363 566.071 846.971 563.01 839.697 C 548.856 806.066 542.695 765.984 524.742 733.99 L 550.491 733.751 C 557.996 761.656 571.175 787.214 576.612 812.145 C 578.857 798.45 594.883 739.17 605.821 733.348 z"/>
<path transform="translate(0,0)" fill="url(#Gradient1)" d="M 428.259 595.573 C 433.298 595.158 441.976 594.047 446.281 596.002 C 447.197 601.761 427.876 611.257 423.082 614.706 C 394.883 634.995 364.289 654.241 330.855 664.519 C 313.932 669.721 287.739 656.177 273.907 647.793 C 255.522 637.084 248.01 620.863 236.888 603.399 C 297.458 603.828 367.828 599.18 428.259 595.573 z"/>
<path transform="translate(0,0)" fill="rgb(36,35,36)" d="M 473.893 733.341 C 475.659 733.272 482.301 732.779 483.391 734.428 C 504.615 766.557 515.381 803.911 530.055 839.082 C 529.896 838.701 535.095 842.875 535.554 843.266 C 532.641 845.801 515.697 844.945 510.768 844.902 C 506.573 835.602 505.249 830.779 502.701 820.931 C 494.785 820.479 485.762 820.639 477.75 820.607 L 447.816 820.748 C 445.612 831.324 443.749 835.765 438.68 845.254 C 431.901 845.537 422.281 845.118 415.288 845.033 C 423.568 821.545 432.705 805.03 442.893 782.71 C 450.05 767.031 453.727 750.773 462.719 735.415 C 466.068 734.359 470.352 733.864 473.893 733.341 z"/>
<path transform="translate(0,0)" fill="rgb(255,255,255)" d="M 474.629 764.606 C 479.632 767.85 488.936 796.045 491.043 802.677 C 486.693 802.152 477.495 802.311 472.75 802.281 L 455.769 802.286 C 461.267 786.995 469.157 778.412 474.629 764.606 z"/>
<path transform="translate(0,0)" fill="rgb(36,35,36)" d="M 176.968 733.58 C 182.108 734.042 191.926 733.851 197.41 733.918 C 197.271 748.401 197.601 763.384 197.738 777.905 C 215.37 778.05 233.004 778.038 250.636 777.868 C 250.523 763.217 250.537 748.566 250.678 733.916 C 257.845 733.493 266.806 733.744 274.117 733.764 C 274.757 762.003 273.79 790.624 274.206 818.895 C 274.332 827.456 274.36 836.56 273.856 845.072 C 266.412 845.282 258.141 845.041 250.63 844.977 C 250.677 830.024 250.837 815.146 250.215 800.202 C 233.276 800.978 214.537 800.714 197.425 800.829 C 197.003 815.101 197.401 830.698 197.283 845.183 L 176.889 845.135 L 176.968 733.58 z"/>
<path transform="translate(0,0)" fill="rgb(36,35,36)" d="M 713.631 733.827 L 797.056 734.057 C 796.934 740.451 796.692 744.382 797.827 750.729 C 781.266 752.494 754.607 751.839 737.308 751.833 C 736.908 759.53 737.058 768.093 737.037 775.866 L 777.92 775.912 L 777.85 796.484 C 764.668 796.737 751.114 796.42 738.009 797.247 C 736.56 799.191 737.003 802.113 737.026 804.75 L 737.283 822.989 L 800.033 822.895 L 800.545 845.093 L 713.676 845.102 C 712.129 811.59 713.475 767.909 713.631 733.827 z"/>
<path transform="translate(0,0)" fill="rgb(36,35,36)" d="M 306.982 733.585 C 312.268 734.105 320.989 733.81 326.554 733.76 C 325.716 747.554 325.804 793.409 327.097 805.932 C 334.49 817.608 341.728 823.203 355.892 823.476 C 382.817 823.996 380.027 798.214 380.068 778.93 C 380.099 764.253 379.906 748.888 379.798 733.918 C 388.055 733.673 395.912 733.774 404.173 733.902 L 404.36 757.039 C 404.548 782.431 406.668 814.67 388.474 834.927 C 376.259 850.681 331.851 849.855 319.265 835.613 C 300.795 814.713 306.732 760.577 306.982 733.585 z"/>
<path transform="translate(0,0)" fill="rgb(36,35,36)" d="M 825.207 733.408 C 831.613 733.919 841.826 733.742 848.524 733.84 C 849.898 767.084 848.591 811.07 848.596 845.185 L 824.972 845.206 C 825.217 808.26 824.373 770.21 825.207 733.408 z"/>
</svg>